<svg width="290" height="81" viewBox="0 0 290 81" fill="none" xmlns="http://www.w3.org/2000/svg">
<path d="M35.2132 19.1229C35.1425 18.0171 34.83 16.9402 34.2975 15.9683C33.7651 14.9965 33.0259 14.1533 32.132 13.4984C30.3171 12.1623 27.854 11.4942 24.7426 11.4942C22.9173 11.4443 21.0994 11.7437 19.3866 12.3764C18.069 12.8623 16.9136 13.7069 16.0507 14.8148C15.289 15.8329 14.8842 17.0737 14.899 18.3451C14.8366 19.3516 15.0818 20.3533 15.6021 21.2172C16.142 22.0664 16.862 22.7864 17.7112 23.3262C18.6862 23.9529 19.7303 24.465 20.8226 24.8523C22.0544 25.297 23.3135 25.6617 24.5923 25.9441L30.0971 27.2605C32.6239 27.8112 35.0894 28.613 37.4568 29.6539C39.5696 30.574 41.5274 31.8152 43.2608 33.3335C44.8774 34.7639 46.1768 36.5168 47.0755 38.4794C48.0175 40.6183 48.4918 42.9338 48.4665 45.2709C48.5321 48.7328 47.5349 52.1316 45.6093 55.0092C43.7245 57.7517 41.012 59.876 37.4717 61.3819C33.9313 62.8878 29.6682 63.6406 24.6823 63.6403C19.7359 63.6403 15.4327 62.8824 11.7727 61.3666C8.31671 60.0124 5.33932 57.6648 3.21626 54.62C1.17165 51.6382 0.0995658 47.9434 0 43.5357H12.5357C12.603 45.3855 13.2231 47.1727 14.3159 48.6667C15.4081 50.0663 16.8691 51.1336 18.5345 51.7484C20.4521 52.4632 22.4863 52.813 24.5324 52.78C26.4852 52.8216 28.4286 52.4968 30.2618 51.8226C31.7389 51.29 33.0459 50.3705 34.0462 49.1602C34.935 48.049 35.4109 46.664 35.3928 45.2412C35.4314 43.9745 34.9998 42.7383 34.1812 41.7708C33.202 40.7147 31.9945 39.8961 30.6509 39.3774C28.8131 38.6257 26.917 38.0253 24.9814 37.5823L18.31 35.9069C13.1438 34.6499 9.06495 32.6853 6.07351 30.0129C3.08207 27.3406 1.59608 23.7405 1.61555 19.2124C1.52432 15.734 2.56941 12.3206 4.59247 9.48947C6.71686 6.62196 9.57428 4.37948 12.8646 2.99759C16.6454 1.38778 20.723 0.592653 24.8316 0.664019C29.3791 0.664019 33.3531 1.44187 36.7536 2.99759C39.9506 4.38583 42.7002 6.63317 44.6969 9.48995C46.6146 12.3359 47.6358 15.6911 47.6288 19.1229H35.2132ZM63.7508 36.2056V62.7725H51.0059V1.50123H63.3918V24.9269H63.9303C64.8854 22.3184 66.6457 20.0813 68.9565 18.5394C71.2701 16.9936 74.1722 16.2207 77.6627 16.2207C80.586 16.1529 83.4738 16.871 86.0248 18.3001C88.4207 19.6994 90.355 21.769 91.5895 24.2539C92.9158 26.8369 93.569 29.9234 93.5492 33.5135V62.7725H80.8014V35.7868C80.8215 32.9546 80.1085 30.7507 78.6622 29.1752C77.216 27.5997 75.1974 26.8118 72.6064 26.8115C71.0057 26.7785 69.4237 27.1599 68.0139 27.9187C66.683 28.6614 65.6007 29.7801 64.9025 31.135C64.1155 32.7076 63.7203 34.4473 63.7508 36.2056V36.2056ZM110.808 63.6403C108.115 63.6883 105.443 63.163 102.969 62.0994C100.751 61.1363 98.8636 59.5452 97.539 57.5223C96.2128 55.4978 95.5496 52.9697 95.5496 49.9381C95.4761 47.7104 95.9594 45.4997 96.956 43.506C97.8584 41.809 99.1759 40.3681 100.785 39.3175C102.483 38.2247 104.347 37.4163 106.305 36.9241C108.441 36.3731 110.617 35.993 112.812 35.7873C115.485 35.508 117.639 35.2438 119.275 34.9946C120.91 34.7453 122.097 34.3713 122.835 33.8725C123.196 33.6313 123.488 33.3003 123.682 32.912C123.876 32.5237 123.965 32.0916 123.941 31.6582V31.4787C123.941 29.5837 123.348 28.1178 122.161 27.081C120.974 26.0442 119.294 25.5256 117.12 25.5253C114.826 25.5253 113.001 26.0289 111.645 27.036C110.348 27.9595 109.4 29.2925 108.953 30.8205L97.1652 29.8631C97.708 27.1847 98.9228 24.6882 100.695 22.6082C102.543 20.4991 104.88 18.8759 107.502 17.8812C110.594 16.7193 113.879 16.1558 117.181 16.2207C119.657 16.2112 122.125 16.5128 124.526 17.1182C126.758 17.6675 128.874 18.6098 130.776 19.9008C132.585 21.1397 134.068 22.7973 135.099 24.7326C136.206 26.9124 136.751 29.3343 136.685 31.7783V62.7725H124.601V56.4003H124.242C123.503 57.8377 122.498 59.1218 121.28 60.1847C119.973 61.3126 118.459 62.1763 116.823 62.7279C114.883 63.3683 112.85 63.6768 110.808 63.6403V63.6403ZM114.458 54.8445C116.18 54.8796 117.884 54.4945 119.424 53.7225C120.8 53.0283 121.967 51.9801 122.805 50.6858C123.628 49.3904 124.055 47.8826 124.032 46.3479V41.4711C123.523 41.7788 122.974 42.0154 122.401 42.1743C121.713 42.3837 120.94 42.5732 120.083 42.743C119.225 42.9128 118.367 43.0624 117.51 43.192C116.652 43.3216 115.874 43.4363 115.176 43.5362C113.83 43.7147 112.513 44.0664 111.257 44.5826C110.236 44.9889 109.339 45.6539 108.654 46.5121C108.016 47.3817 107.689 48.4408 107.727 49.5187C107.685 50.2859 107.837 51.0512 108.169 51.7441C108.501 52.4369 109.002 53.0348 109.627 53.4827C111.052 54.4371 112.744 54.914 114.458 54.8445V54.8445ZM140.692 80.005V16.819H153.257V24.5378H153.826C154.466 23.1732 155.286 21.9004 156.264 20.7533C157.421 19.3971 158.847 18.2967 160.453 17.5222C162.471 16.5924 164.679 16.1468 166.9 16.2207C170.177 16.1998 173.392 17.1075 176.174 18.8386C179.007 20.5839 181.27 23.2067 182.966 26.7072C184.661 30.2076 185.509 34.5906 185.509 39.8561C185.509 44.9818 184.686 49.3049 183.041 52.8255C181.396 56.346 179.162 59.0087 176.34 60.8137C173.514 62.6199 170.222 63.5608 166.868 63.5206C164.705 63.5828 162.554 63.1638 160.572 62.2938C158.963 61.5623 157.522 60.5084 156.337 59.1972C155.317 58.0669 154.47 56.7916 153.824 55.4127H153.436V80.005H140.692ZM153.168 39.7957C153.118 42.2279 153.503 44.6494 154.304 46.9463C154.938 48.8029 156.078 50.4454 157.595 51.6881C159.095 52.8362 160.944 53.433 162.831 53.3783C164.733 53.4354 166.595 52.8269 168.097 51.658C169.612 50.3974 170.746 48.7399 171.373 46.8711C172.158 44.5966 172.538 42.2017 172.494 39.7957C172.539 37.4153 172.164 35.0457 171.388 32.795C170.764 30.9453 169.635 29.3075 168.127 28.0681C166.612 26.905 164.741 26.3025 162.832 26.363C160.946 26.303 159.096 26.8829 157.582 28.0082C156.071 29.2235 154.935 30.8416 154.306 32.6754C153.502 34.9613 153.117 37.3732 153.168 39.7957V39.7957ZM188.078 80.005V16.819H200.643V24.5378H201.212C201.852 23.1732 202.672 21.9004 203.65 20.7533C204.807 19.3971 206.233 18.2967 207.839 17.5222C209.857 16.5924 212.065 16.1468 214.286 16.2207C217.563 16.1998 220.778 17.1075 223.561 18.8386C226.393 20.5839 228.657 23.2067 230.352 26.7072C232.048 30.2076 232.895 34.5906 232.895 39.8561C232.895 44.9818 232.073 49.3049 230.427 52.8255C228.782 56.346 226.548 59.0087 223.726 60.8137C220.901 62.6192 217.61 63.5601 214.258 63.5206C212.093 63.5833 209.941 63.1642 207.958 62.2938C206.351 61.5619 204.91 60.508 203.727 59.1972C202.707 58.0669 201.86 56.7916 201.214 55.4127H200.825V80.005H188.078ZM200.553 39.7957C200.504 42.2279 200.889 44.6494 201.69 46.9463C202.323 48.8029 203.463 50.4454 204.981 51.6881C206.48 52.8362 208.329 53.433 210.217 53.3783C212.119 53.4354 213.981 52.8269 215.482 51.658C216.998 50.3974 218.132 48.7399 218.758 46.8711C219.544 44.5966 219.924 42.2017 219.88 39.7957C219.924 37.4153 219.55 35.0457 218.773 32.795C218.15 30.9452 217.02 29.3074 215.512 28.0681C213.997 26.905 212.126 26.3025 210.217 26.363C208.331 26.3029 206.48 26.883 204.966 28.0087C203.455 29.224 202.32 30.8421 201.69 32.6758C200.887 34.9618 200.502 37.3735 200.553 39.7957V39.7957ZM241.806 79.9155C240.287 79.9236 238.77 79.7985 237.273 79.5416C236.085 79.3504 234.918 79.0448 233.788 78.6293L236.66 69.0858C238.914 69.7837 240.814 69.9682 242.359 69.6391C243.905 69.3101 245.126 68.1085 246.024 66.0342L246.772 64.0898L230.287 16.819H243.691L253.204 50.5661H253.683L263.287 16.819L276.78 16.8789L258.919 67.7388C258.133 70.0614 256.954 72.2319 255.434 74.156C253.949 75.995 252.046 77.4517 249.884 78.4043C247.329 79.4743 244.575 79.9893 241.806 79.9155V79.9155Z" fill="#0F69E3"/>
<path d="M281.918 49.1683C280.967 49.1504 280.022 49.3292 279.143 49.6936C278.264 50.0579 277.47 50.5999 276.81 51.2855C276.125 51.9452 275.583 52.7393 275.218 53.6182C274.854 54.4971 274.675 55.4418 274.693 56.3931C274.678 57.344 274.858 58.2878 275.222 59.1663C275.586 60.0448 276.127 60.8393 276.81 61.5006C277.472 62.1836 278.267 62.7237 279.145 63.0879C280.023 63.452 280.967 63.6324 281.918 63.6178C282.868 63.6295 283.811 63.4479 284.689 63.0839C285.567 62.72 286.362 62.1813 287.025 61.5006C287.706 60.8372 288.245 60.0424 288.609 59.1644C288.973 58.2863 289.154 57.3435 289.143 56.3931C289.157 55.4423 288.977 54.4986 288.613 53.6202C288.248 52.7418 287.708 51.9472 287.025 51.2855C286.364 50.6022 285.57 50.0617 284.691 49.6975C283.813 49.3333 282.869 49.1532 281.918 49.1683V49.1683ZM281.918 49.8643C282.777 49.8531 283.629 50.0166 284.423 50.345C285.217 50.6733 285.936 51.1596 286.537 51.7743C287.154 52.3729 287.641 53.0915 287.97 53.8859C288.298 54.6803 288.461 55.5336 288.447 56.3931C288.458 57.2522 288.294 58.1046 287.966 58.8986C287.638 59.6926 287.151 60.4116 286.537 61.0119C285.936 61.6266 285.217 62.1129 284.423 62.4412C283.629 62.7695 282.777 62.933 281.918 62.9218C281.058 62.9359 280.205 62.7736 279.411 62.4451C278.616 62.1166 277.898 61.6289 277.299 61.0119C276.684 60.4116 276.198 59.6926 275.87 58.8986C275.541 58.1046 275.378 57.2522 275.389 56.3931C275.375 55.5336 275.537 54.6803 275.866 53.8859C276.194 53.0915 276.682 52.3729 277.299 51.7743C277.898 51.1571 278.616 50.6692 279.411 50.3405C280.205 50.0119 281.058 49.8495 281.918 49.8634V49.8643ZM282.125 51.2707C280.526 51.2707 279.298 51.7886 278.454 52.8547C277.681 53.8897 277.293 55.1619 277.358 56.452C277.291 57.7331 277.668 58.9982 278.424 60.0344C279.238 61.0722 280.482 61.5911 282.155 61.5911C283.165 61.6119 284.152 61.2881 284.953 60.673C285.8 59.9689 286.359 58.9776 286.522 57.888H284.834C284.71 58.5412 284.365 59.1318 283.857 59.561C283.358 59.9204 282.754 60.1027 282.139 60.0789C281.014 60.0789 280.215 59.7386 279.726 59.0574C279.248 58.2765 279.025 57.3656 279.09 56.452C279.033 55.5242 279.283 54.6037 279.801 53.8317C280.063 53.477 280.412 53.1945 280.813 53.0104C281.214 52.8263 281.655 52.7466 282.095 52.7786C282.684 52.7487 283.268 52.899 283.768 53.2094C284.25 53.5522 284.584 54.0657 284.701 54.6454H286.374C286.256 53.692 285.78 52.8191 285.042 52.2041C284.21 51.5596 283.177 51.2291 282.125 51.2707V51.2707Z" fill="#0F69E3"/>
</svg>
